{"title":"The.Company.Men.2011.DVDRip.XViD.AC3-T0XiCiNK","uid":6319649,"size":1440083246,"categoryP":"video","categoryS":"movies","magnet":"?xt=urn:btih:34eecd4ef2cd596f9189d2bd92ac39d77316e586&amp;dn=The.Company.Men.2011.DVDRip.XViD.AC3-T0XiCiNK&amp;tr=udp%3A%2F%2Ftracker.openbittorrent.com%3A80&amp;tr=udp%3A%2F%2Fopen.demonii.com%3A1337&amp;tr=udp%3A%2F%2Ftracker.coppersurfer.tk%3A6969&amp;tr=udp%3A%2F%2Fexodus.desync.com%3A6969","seeders":0,"leechers":0,"uploader":"sceneline","files":5,"time":1302913331,"description":"-\nhttp:// www. Speed. Cd       \nhttp:// www. Speed. Cd       the fast  and The Hottest Private Tracker on the net\n\nPlease Seed back to make the speed Faster!!!\n\nand don't forget to visit      ...... www. Speed. Cd..........\n-[img]http://noob.hu/2011/04/15/the_company_men_poster.jpg[/img]\n\n::::::::::::::Enjoy:Another:Release:From:T0XiCiNK::::::::::::::\n\nFile:: The.Company.Men.2011.DVDRip.XViD.AC3-T0XiCiNK\n\nVideo Source:: The.Company.Men.2010.PAL.DVD9.TRL, thanks :)\nAudio Source:: The.Company.Men.2010.PAL.DVD9.TRL, thanks :)\nLanguage::English\nIMDB:: http://www.imdb.com/title/tt1172991/\n\nThe story centers on a year in the life of three men trying to survive a round of corporate downsizing at a major company - and how that affects them, their families, and their communities.\n\nSpecs::\n\nGeneral\n\nFormat                           : AVI\nFormat/Info                      : Audio Video Interleave\nFile size                        : 1.33 GiB\nDuration                         : 1h 40mn\nOverall bit rate                 : 1 894 Kbps\nWriting library                  : TMPGEnc 4.0 XPress Version. 4.7.4.299\n\nVideo\nID                               : 0\nFormat                           : MPEG-4 Visual\nFormat profile                   : Advanced Simple@L5\nFormat settings, BVOP            : Yes\nFormat settings, QPel            : No\nFormat settings, GMC             : No warppoints\nFormat settings, Matrix          : Default (MPEG)\nCodec ID                         : XVID\nCodec ID/Hint                    : XviD\nDuration                         : 1h 40mn\nBit rate                         : 1 695 Kbps\nWidth                            : 720 pixels\nHeight                           : 400 pixels\nDisplay aspect ratio             : 16:9\nFrame rate                       : 25.000 fps\nColor space                      : YUV\nChroma subsampling               : 4:2:0\nBit depth                        : 8 bits\nScan type                        : Progressive\nBits/(Pixel*Frame)               : 0.235\nStream size                      : 1.19 GiB (89%)\nWriting library                  : XviD 1.2.0.dev47 (UTC 2006-11-01)\n\nAudio\nID                               : 1\nFormat                           : AC-3\nFormat/Info                      : Audio Coding 3\nMode extension                   : CM (complete main)\nCodec ID                         : 2000\nDuration                         : 1h 40mn\nBit rate mode                    : Constant\nBit rate                         : 192 Kbps\nChannel(s)                       : 1 channel\nChannel positions                : Front: C\nSampling rate                    : 48.0 KHz\nBit depth                        : 16 bits\nStream size                      : 138 MiB (10%)\nAlignment                        : Aligned on interleaves\nInterleave, duration             : 240 ms (6.00 video frames)\nInterleave, preload duration     : 224 ms\n\n\n\nNOTES:: Used the Italian DVDR which had an english track on it, enjoy :)\n\n\n::Why Complain? Whats Free Is Free::\n\n::We are always looking for friends with unreleased DVD's, Screeners, R5's, Audio, Cams, Silvers,\n...and any other good sources you may have to offer - \n..contact us: &lt;a class=&quot;__cf_email__&quot; href=&quot;/cdn-cgi/l/email-protection&quot; data-cfemail=&quot;d5a1e5adbcb6a7b0b9b0b4a6b0a695bda0a6bdb8b4bcb9fbb6bab8&quot;&gt;[email&amp;#160;protected]&lt;/a&gt;&lt;script cf-hash='f9e31' type=&quot;text/javascript&quot;&gt;\n/* &lt;![CDATA[ */!function(){try{var t=&quot;currentScript&quot;in document?document.currentScript:function(){for(var t=document.getElementsByTagName(&quot;script&quot;),e=t.length;e--;)if(t[e].getAttribute(&quot;cf-hash&quot;))return t[e]}();if(t&amp;&amp;t.previousSibling){var e,r,n,i,c=t.previousSibling,a=c.getAttribute(&quot;data-cfemail&quot;);if(a){for(e=&quot;&quot;,r=parseInt(a.substr(0,2),16),n=2;a.length-n;n+=2)i=parseInt(a.substr(n,2),16)^r,e+=String.fromCharCode(i);e=document.createTextNode(e),c.parentNode.replaceChild(e,c)}}}catch(u){}}();/* ]]&gt; */&lt;/script&gt;\n\n::::::::::::::::::::::::::::::::::::   Respect To   :::::::::::::::::::::::::::::::::::::\n::FLAWL3SS,Rx,HEHE,Hive-CM8,Tranz,Vik,Joey,bob,Unevano,SANTi &amp; our friends on utn and PA::\n                       &quot;and to all of you who support us, Thank-You&quot;\n\n\n[img]http://noob.hu/2011/04/15/vlcsnap-2011-04-15-13h26m40s82.png[/img]\n[img]http://noob.hu/2011/04/15/vlcsnap-2011-04-15-13h29m16s82.png[/img]\n[img]http://noob.hu/2011/04/15/vlcsnap-2011-04-15-13h31m28s136.png[/img]\n[img]http://noob.hu/2011/04/15/vlcsnap-2011-04-15-14h28m03s18.png[/img]","torrent":{"xt":"urn:btih:34eecd4ef2cd596f9189d2bd92ac39d77316e586","amp;dn":"The.Company.Men.2011.DVDRip.XViD.AC3-T0XiCiNK","amp;tr":["udp%3A%2F%2Ftracker.openbittorrent.com%3A80","udp%3A%2F%2Fopen.demonii.com%3A1337","udp%3A%2F%2Ftracker.coppersurfer.tk%3A6969","udp%3A%2F%2Fexodus.desync.com%3A6969"],"infoHash":"34eecd4ef2cd596f9189d2bd92ac39d77316e586","infoHashBuffer":{"type":"Buffer","data":[52,238,205,78,242,205,89,111,145,137,210,189,146,172,57,215,115,22,229,134]},"announce":[],"urlList":[]}}